<svg id="Livello_1" viewBox="0 0 66 66" xmlns="http://www.w3.org/2000/svg"><defs><style>.cls-1{fill:#fff;}.cls-2{fill:none;stroke:#fff;stroke-linecap:round;stroke-linejoin:round;stroke-width:2px;}</style></defs><title></title><path d="M1,34A32,32,0,1,0,33,2,32,32,0,0,0,1,34Z"></path><ellipse class="cls-1" cx="25.73" cy="32.46" rx="1.45" ry="1.5"></ellipse><path class="cls-2" d="M38.82,42.93l-5.82,9-5.82-9H18.07A1.08,1.08,0,0,1,17,41.85V25.53A6.46,6.46,0,0,1,23.4,19H47.93A1.08,1.08,0,0,1,49,20.09V41.85a1.08,1.08,0,0,1-1.07,1.09H38.82Z"></path><ellipse class="cls-1" cx="33" cy="32.46" rx="1.45" ry="1.5"></ellipse><ellipse class="cls-1" cx="40.27" cy="32.46" rx="1.45" ry="1.5"></ellipse></svg>